<svg width="18" height="14" viewBox="0 0 18 14" fill="none" xmlns="http://www.w3.org/2000/svg">
    <path
        d="M16.5 0C16.9062 0 17.25 0.15625 17.5625 0.4375C17.8438 0.75 18 1.09375 18 1.5V12.5C18 12.9375 17.8438 13.2812 17.5625 13.5625C17.25 13.875 16.9062 14 16.5 14H1.5C1.0625 14 0.71875 13.875 0.4375 13.5625C0.125 13.2812 0 12.9375 0 12.5V1.5C0 1.09375 0.125 0.75 0.4375 0.4375C0.71875 0.15625 1.0625 0 1.5 0H16.5ZM1.6875 1.5C1.625 1.5 1.59375 1.53125 1.5625 1.5625C1.5 1.625 1.5 1.65625 1.5 1.6875V3H16.5V1.6875C16.5 1.65625 16.4688 1.625 16.4375 1.5625C16.375 1.53125 16.3438 1.5 16.3125 1.5H1.6875ZM16.3125 12.5C16.3438 12.5 16.375 12.5 16.4375 12.4375C16.4688 12.4062 16.5 12.375 16.5 12.3125V7H1.5V12.3125C1.5 12.375 1.5 12.4062 1.5625 12.4375C1.59375 12.5 1.625 12.5 1.6875 12.5H16.3125ZM6 9.375C6 9.28125 5.9375 9.1875 5.875 9.125C5.8125 9.0625 5.71875 9 5.625 9H3.375C3.25 9 3.15625 9.0625 3.09375 9.125C3.03125 9.1875 3 9.28125 3 9.375V10.625C3 10.75 3.03125 10.8438 3.09375 10.9062C3.15625 10.9688 3.25 11 3.375 11H5.625C5.71875 11 5.8125 10.9688 5.875 10.9062C5.9375 10.8438 6 10.75 6 10.625V9.375ZM12 9.375C12 9.28125 11.9375 9.1875 11.875 9.125C11.8125 9.0625 11.7188 9 11.625 9H7.375C7.25 9 7.15625 9.0625 7.09375 9.125C7.03125 9.1875 7 9.28125 7 9.375V10.625C7 10.75 7.03125 10.8438 7.09375 10.9062C7.15625 10.9688 7.25 11 7.375 11H11.625C11.7188 11 11.8125 10.9688 11.875 10.9062C11.9375 10.8438 12 10.75 12 10.625V9.375Z"
        fill="#62646A"></path>
</svg>