<svg xmlns="http://www.w3.org/2000/svg" width="16" height="16" fill="currentColor" viewBox="0 0 21 20">
    <path
        d="M19.125 0H.875C.375 0 0 .375 0 .875V19.25c0 .375.375.75.875.75H19.25c.5 0 .875-.375.875-.875V.875c-.125-.5-.5-.875-1-.875M5.875 17H3V7.5h3V17zM4.5 6.25c-1 0-1.75-.875-1.75-1.75 0-1 .75-1.75 1.75-1.75s1.75.75 1.75 1.75c-.125.875-.875 1.75-1.75 1.75M17 17h-3v-4.625c0-1.125 0-2.5-1.5-2.5s-1.75 1.25-1.75 2.5v4.75h-3V7.5h2.875v1.25C11 8 12 7.25 13.375 7.25c3 0 3.5 2 3.5 4.5V17z">
    </path>
</svg>