<svg xmlns="http://www.w3.org/2000/svg" width="24" height="24" fill="#222325" viewBox="0 0 24 24"><path fill-rule="evenodd" d="M17.3 17a.8.8 0 0 1-.8.8h-9a.8.8 0 0 1 0-1.6h9a.8.8 0 0 1 .8.8M4.5 12.2h15v1.6h-15z" clip-rule="evenodd"></path><path fill-rule="evenodd" d="M7 3.8A2.2 2.2 0 0 0 4.8 6v12A2.2 2.2 0 0 0 7 20.2h10a2.2 2.2 0 0 0 2.2-2.2V6A2.2 2.2 0 0 0 17 3.8zM3.2 6A3.8 3.8 0 0 1 7 2.2h10A3.8 3.8 0 0 1 20.8 6v12a3.8 3.8 0 0 1-3.8 3.8H7A3.8 3.8 0 0 1 3.2 18z" clip-rule="evenodd"></path></svg>