<svg xmlns="http://www.w3.org/2000/svg" width="16" height="16" fill="black" viewBox="0 0 20 20">
    <path
        d="M10 0C4.5 0 0 4.5 0 10c0 4.25 2.625 7.875 6.375 9.25-.125-.75-.125-2 0-2.875.125-.75 1.125-5 1.125-5s-.25-.5-.25-1.375c0-1.375.875-2.5 1.875-2.5.875 0 1.25.625 1.25 1.375 0 .875-.5 2.125-.875 3.375-.25 1 .5 1.75 1.5 1.75 1.75 0 3.125-1.875 3.125-4.625C14.125 7 12.375 5.25 10 5.25c-2.875 0-4.5 2.125-4.5 4.375 0 .875.375 1.75.75 2.25v.5c-.125.375-.25 1-.25 1.125s-.125.25-.375.125c-1.25-.625-2-2.375-2-3.875 0-3.125 2.25-6 6.625-6 3.5 0 6.125 2.5 6.125 5.75 0 3.5-2.125 6.25-5.25 6.25-1 0-2-.5-2.25-1.125 0 0-.5 1.875-.625 2.375-.25.875-.875 2-1.25 2.625Q8.5 20 10 20c5.5 0 10-4.5 10-10S15.5 0 10 0">
    </path>
</svg>