<?xml version="1.0" encoding="UTF-8"?>
<svg xmlns="http://www.w3.org/2000/svg" version="1.1" width="89" height="27" viewBox="0 0 89 27">
  <defs>
    <style>
      .cls-1 {
        fill: #38b773;
      }

      .cls-2 {
        fill: #414246;
      }
    </style>
  </defs>
  <!-- Generator: Adobe Illustrator 28.7.1, SVG Export Plug-In . SVG Version: 1.2.0 Build 142)  -->
  <g>
    <g id="Layer_1">
      <g>
        <path class="cls-2" d="M18.8,8.2h5.4v2.5c.8-1,1.6-1.7,2.5-2.2s1.8-.6,3-.6,2.9.5,3.8,1.4,1.4,2.4,1.4,4.4v9.6h-5.8v-8.3c0-.9-.2-1.6-.5-2s-.8-.6-1.5-.6-1.3.3-1.7.8-.7,1.5-.7,2.9v7.3h-5.8v-15.1Z"/>
        <path class="cls-2" d="M50.2,4.7v18.3h-4.8v-2c-.7.8-1.3,1.4-1.8,1.7-.7.4-1.5.6-2.4.6-1.8,0-3.2-.7-4.1-2.1s-1.4-3-1.4-5,.5-3.9,1.6-5,2.4-1.7,4-1.7,1.5.1,2.2.4,1.2.7,1.7,1.2v-6.3h5.1ZM45.1,16.3c0-1-.2-1.8-.7-2.3s-1-.8-1.7-.8-1.1.2-1.5.7-.6,1.3-.6,2.5.2,1.9.6,2.4.9.8,1.5.8,1.2-.3,1.6-.8.6-1.3.6-2.5Z"/>
        <path class="cls-2" d="M86,12.8h-2.5c-1.6,0-2.5,1.2-2.5,3.4v7.6h-4.9v-11h-2c-1.6,0-2.5,1.2-2.5,3.4v7.6h-4.9v-15h4.9v2.3c.8-1.8,1.9-2.3,3.5-2.3h6v2.3c.8-1.8,1.9-2.3,3.5-2.3h1.6v4.1ZM65.6,17.3h-10.1c.2,1.7,1.3,2.6,3,2.6s2.2-.6,2.5-1.5l4.3,1.2c-1.1,2.6-3.7,4.2-6.9,4.2-5.3,0-7.8-4.2-7.8-7.8s2.1-7.7,7.4-7.7,7.5,4.3,7.5,7.4,0,1.1,0,1.5ZM60.9,14.5c0-1.3-1.1-2.5-2.7-2.5s-2.5.7-2.8,2.5h5.5ZM3.7,23.2h4.8v-11h4.7v11h4.8v-15h-9.5v-.9c0-1,.7-1.6,1.8-1.6h2.9V1.5h-3.6c-3.5,0-5.9,2.2-5.9,5.4v1.2H.9v4.1h2.8v11Z"/>
        <path class="cls-1" d="M86.1,24c1.1,0,2-.9,2-2s-.9-2-2-2-2,.9-2,2,.9,2,2,2Z"/>
      </g>
    </g>
  </g>
</svg>